HIERARCHY
ROOT Hips
{
  OFFSET -31.5692 30.0904 122.763
  CHANNELS 6 Xposition Yposition Zposition Zrotation Xrotation Yrotation
  JOINT LeftUpLeg
  {
    OFFSET 8.64259 1.95398 -2.38835
    CHANNELS 3 Zrotation Xrotation Yrotation
    JOINT LeftLeg
    {
      OFFSET 43.7702 0 0
      CHANNELS 3 Zrotation Xrotation Yrotation
      JOINT LeftFoot
      {
        OFFSET 40.6238 0 0
        CHANNELS 3 Zrotation Xrotation Yrotation
        JOINT LeftToeBase
        {
          OFFSET 12.7242 0 0
          CHANNELS 3 Zrotation Xrotation Yrotation
          End Site
          {
            OFFSET 0 0 0
          }
        }
      }
    }
  }
  JOINT RightUpLeg
  {
    OFFSET -8.2249 1.95398 -2.59336
    CHANNELS 3 Zrotation Xrotation Yrotation
    JOINT RightLeg
    {
      OFFSET 43.5653 0 0
      CHANNELS 3 Zrotation Xrotation Yrotation
      JOINT RightFoot
      {
        OFFSET 40.6238 0 0
        CHANNELS 3 Zrotation Xrotation Yrotation
        JOINT RightToeBase
        {
          OFFSET 12.7242 0 0
          CHANNELS 3 Zrotation Xrotation Yrotation
          End Site
          {
            OFFSET 0 0 0
          }
        }
      }
    }
  }
  JOINT Spine
  {
    OFFSET 0.165834 0.87714 6.61349
    CHANNELS 3 Zrotation Xrotation Yrotation
    JOINT Spine1
    {
      OFFSET 7.38963 1.71661e-005 0
      CHANNELS 3 Zrotation Xrotation Yrotation
      JOINT Spine2
      {
        OFFSET 11.9445 1.14441e-005 0
        CHANNELS 3 Zrotation Xrotation Yrotation
        JOINT Spine3
        {
          OFFSET 14.7254 4.19617e-005 0
          CHANNELS 3 Zrotation Xrotation Yrotation
          JOINT Spine4
          {
            OFFSET 10.9679 0 0
            CHANNELS 3 Zrotation Xrotation Yrotation
            JOINT RightShoulder
            {
              OFFSET 2.46616 -1.6653 3.69651
              CHANNELS 3 Zrotation Xrotation Yrotation
              JOINT RightArm
              {
                OFFSET 13.0012 0 0
                CHANNELS 3 Zrotation Xrotation Yrotation
                JOINT RightForeArm
                {
                  OFFSET 28.7848 1.62311e-005 0
                  CHANNELS 3 Zrotation Xrotation Yrotation
                  JOINT RightHand
                  {
                    OFFSET 26.5688 1.62095e-005 0
                    CHANNELS 3 Zrotation Xrotation Yrotation
                    End Site
                    {
                      OFFSET 0 0 0
                    }
                  }
                }
              }
            }
            JOINT LeftShoulder
            {
              OFFSET 2.38034 -1.29275 -3.7523
              CHANNELS 3 Zrotation Xrotation Yrotation
              JOINT LeftArm
              {
                OFFSET 16.3182 6.07031e-005 0
                CHANNELS 3 Zrotation Xrotation Yrotation
                JOINT LeftForeArm
                {
                  OFFSET 27.0901 0 0
                  CHANNELS 3 Zrotation Xrotation Yrotation
                  JOINT LeftHand
                  {
                    OFFSET 24.5451 1.51738e-005 0
                    CHANNELS 3 Zrotation Xrotation Yrotation
                    End Site
                    {
                      OFFSET 0 0 0
                    }
                  }
                }
              }
            }
            JOINT Neck
            {
              OFFSET 5.0226 -0.0266342 0
              CHANNELS 3 Zrotation Xrotation Yrotation
              JOINT Head
              {
                OFFSET 6.69364 2.86102e-005 0
                CHANNELS 3 Zrotation Xrotation Yrotation
                End Site
                {
                  OFFSET 0 0 0
                }
              }
            }
          }
        }
      }
    }
  }
}
MOTION
Frames:	17
Frame Time:	0.0416667
-31.0994 100.894 -35.085 84.0296 -43.1526 87.1703 -167.057 -33.7697 92.7622 -22.7392 -0.986568 -1.01918 52.4564 -4.56652 0.0357921 23.3081 -0.909643 -4.4207 -176.186 45.5646 97.7052 -33.6612 -10.6433 -0.999817 70.4802 -7.74895 -2.88116 23.3651 1.34006 4.69733 -3.55378 7.85288 -91.7427 11.0848 -7.88199 -2.70719 -0.5642 -7.99343 -2.35577 -23.2253 -6.70355 -4.95813 -3.21266 -6.70354 -4.95813 96.9025 -9.36294 -98.2268 43.1488 -16.8237 55.7447 -32.4281 -31.1771 -71.7165 -49.6003 6.2553 -26.6204 -82.5622 -0.933378 80.1558 6.60181 4.20744 -30.8076 29.9563 9.46406 -56.6457 22.3945 -18.0397 -69.4034 39.0368 19.3941 -1.85398 -21.8991 18.0408 7.42873 
-24.3262 100.667 -29.5674 84.9976 -44.6948 85.9536 -167.547 -33.35 89.6162 -33.0171 0.2471 -2.67544 54.4178 -4.27745 0.757046 25.537 0.414189 -5.43162 -176.888 40.0074 96.7883 -22.6356 -12.2932 -0.445118 68.2349 -6.99233 -2.28651 23.4307 1.3467 4.56375 -3.4337 7.85398 -91.6304 11.0926 -7.59099 -2.51102 -0.557907 -7.69408 -2.17277 -23.2124 -6.4849 -4.68306 -3.19974 -6.48492 -4.68307 97.6186 -13.167 -94.8543 39.2589 -20.7256 51.3822 -39.2897 -32.7331 -75.9579 -43.9659 5.2126 -27.7642 -83.257 -4.25361 79.416 7.18318 8.21674 -28.486 29.0652 10.6665 -54.4627 22.9896 -18.7141 -70.0702 37.7595 20.264 0.470066 -21.6175 17.8901 7.09439 
-17.7722 100.409 -24.0079 85.9289 -45.8923 85.4031 -166.403 -31.1754 88.5978 -44.9681 5.27221 -3.98944 55.5622 -4.24267 2.42021 27.3626 0.900979 -4.6343 -177.471 35.4667 96.4378 -16.0497 -10.1464 -0.152462 65.9402 -5.91336 -1.72123 24.1519 1.01313 4.66947 -3.27754 7.8601 -91.5837 11.0847 -7.25855 -2.45065 -0.567651 -7.35931 -2.12732 -23.2106 -6.18609 -4.5246 -3.19795 -6.18609 -4.5246 96.9079 -15.9281 -95.9573 37.1771 -19.7292 48.3682 -40.9617 -31.7992 -77.342 -43.1397 4.84614 -27.2766 -84.1176 -8.4795 78.7288 7.01128 13.5512 -26.0237 28.03 7.09522 -56.4648 21.232 -16.663 -68.111 36.5407 20.7399 2.43746 -21.671 17.4774 7.25659 
-11.4363 99.817 -18.4389 86.6577 -47.6726 85.3353 -163.572 -27.8442 89.1359 -57.9725 9.32784 -4.88203 56.9355 -3.6826 3.63213 26.6853 0.986227 -5.71137 -177.963 32.9394 96.8062 -15.9237 -7.8221 -0.0239422 66.7746 -6.2283 -1.43169 23.1428 1.84374 3.10693 -3.05169 7.89666 -91.634 11.0086 -6.83179 -2.59843 -0.646306 -6.93947 -2.29405 -23.2697 -5.73496 -4.53565 -3.25703 -5.73495 -4.53565 95.7325 -19.0624 -98.0404 34.3305 -18.0516 44.1974 -42.6132 -30.7954 -77.8574 -42.7916 4.62336 -26.8651 -85.206 -15.5392 78.4771 7.12245 17.4649 -22.7066 29.0953 5.78296 -59.4663 23.6904 -16.7986 -63.6582 34.1524 22.0013 7.21241 -19.0653 17.2505 4.83678 
-5.29886 98.9637 -12.8517 86.5101 -49.6113 84.7784 -159.718 -22.8492 90.2883 -71.9369 11.3239 -4.73285 58.7441 -2.71651 4.96208 22.5843 -0.33287 -6.73288 -178.609 31.6798 97.271 -19.2677 -8.65297 0.128992 67.4296 -6.07707 -1.77529 21.9153 2.90798 1.21296 -2.72756 7.86344 -91.7185 11.0721 -6.22613 -2.81968 -0.586414 -6.34415 -2.54212 -23.1836 -5.09122 -4.56273 -3.17097 -5.09122 -4.56272 93.8468 -23.3527 -101.054 30.3373 -16.6836 39.8435 -42.9479 -28.4278 -78.2444 -46.5681 5.00627 -25.8599 -86.4653 -23.6026 78.3191 6.92621 21.1443 -19.2308 32.0817 7.47636 -59.7171 25.5917 -17.8441 -62.7518 31.1793 22.6608 11.8066 -15.7715 16.6711 2.80818 
0.818016 97.8157 -7.26175 87.4066 -51.5792 85.7612 -154.863 -17.5422 92.6168 -85.9127 9.5556 -3.18166 60.1812 -2.11928 5.35362 22.2008 -0.0221588 -7.95009 -179.418 28.2058 98.0852 -20.9695 -11.8602 0.412092 66.6977 -5.28407 -2.08757 22.9685 1.79285 3.60966 -2.33227 7.97613 -91.7888 10.8458 -5.46981 -3.04699 -0.816607 -5.59853 -2.80287 -23.3857 -4.3019 -4.55052 -3.37308 -4.3019 -4.55054 91.6193 -26.9778 -104.605 25.8796 -13.5139 34.0881 -41.2622 -23.7382 -78.6281 -46.8282 5.69443 -26.7134 -87.5833 -30.5187 78.0812 4.80293 24.6002 -14.3501 29.2144 6.34603 -60.2583 26.121 -16.8023 -59.2133 30.8395 22.4236 13.2475 -15.0044 15.9555 2.4784 
6.76562 96.7586 -1.58341 88.4238 -52.8144 87.6874 -150.488 -10.3766 95.1031 -99.4348 5.5221 -0.2747 61.6861 -1.31443 4.51123 21.3517 -0.596531 -7.35248 179.822 24.5307 99.0243 -22.3955 -14.0374 0.792044 62.1835 -1.53894 -0.337071 27.0602 -0.27724 4.86743 -1.98246 8.05328 -91.8674 10.6918 -4.80784 -3.27306 -0.973831 -4.94715 -3.0581 -23.5206 -3.60287 -4.56617 -3.50797 -3.60287 -4.56618 89.6507 -30.2463 -107.35 21.3837 -10.7273 26.3134 -39.1466 -17.8493 -80.5309 -46.1573 6.09877 -27.0866 -88.5171 -36.4881 77.9779 0.632334 27.6756 -6.87625 29.6743 5.76606 -60.5717 25.0703 -15.3032 -56.8938 30.1736 21.7905 13.4168 -14.2399 15.3627 2.62644 
12.2889 95.6399 4.11749 89.3584 -54.1291 89.6218 -147.386 -1.1785 96.415 -111.928 4.96657 2.69168 62.2766 -0.222484 6.15791 20.5673 -0.152481 -9.23375 178.164 25.9407 101.069 -35.5028 -18.0239 1.67961 69.2471 -5.24588 -3.88117 7.88498 7.79056 5.80494 -1.49968 8.11709 -91.9537 10.5685 -3.88454 -3.53443 -1.10101 -4.03626 -3.36008 -23.6225 -2.64391 -4.53729 -3.60985 -2.64392 -4.53729 89.4928 -30.1262 -107.715 21.3951 -8.76528 15.998 -40.7891 -13.8216 -84.2869 -45.3131 5.50272 -25.7984 -88.2432 -40.2162 79.3415 -6.16808 29.2267 0.427536 31.6182 7.20976 -59.901 23.9456 -14.8841 -57.3715 28.794 20.8161 14.7047 -12.9186 14.2359 1.43208 
17.0338 94.4745 9.24701 88.0604 -55.8033 88.9489 -145.528 10.1004 94.1789 -123.792 5.50972 5.08731 62.6262 0.8747 7.25441 18.6426 -1.87724 -6.95827 179.314 26.4895 103.387 -44.9307 -16.4033 0.0290357 73.4178 -8.81942 -7.37928 16.1286 5.08657 2.84184 -0.901017 7.99262 -91.9617 10.8319 -2.69978 -3.64992 -0.841061 -2.85769 -3.52771 -23.3436 -1.47919 -4.2915 -3.33098 -1.47917 -4.2915 91.4635 -29.4649 -104.031 21.7049 -6.31582 1.6122 -41.038 -10.452 -86.7399 -45.6894 5.16981 -24.4366 -86.8973 -43.5513 82.2581 -13.3908 29.9265 9.09292 34.5248 8.47992 -59.4533 25.0952 -15.159 -55.9325 27.2612 19.4212 16.0386 -11.3908 12.6553 0.918429 
21.1138 93.8997 14.0978 86.3032 -58.1879 89.4636 -145.586 24.5492 91.8451 -133.371 9.6649 6.34334 61.6131 1.02114 9.43049 17.5196 -1.58755 -8.69703 -179.084 23.9722 106.547 -47.1763 -14.9771 -0.761274 76.9477 -12.6278 -9.34794 15.0904 5.4188 3.26315 -0.209007 7.96631 -92.0868 10.8988 -1.38077 -4.02075 -0.777486 -1.55626 -3.95624 -23.2628 -0.109763 -4.24945 -3.25017 -0.109773 -4.24945 92.0824 -29.9579 -102.621 21.0988 -1.19509 -12.8628 -41.4252 -8.25657 -88.4326 -44.737 5.15569 -24.5609 -85.3018 -45.0187 85.0726 -22.2124 26.8985 20.153 36.3634 7.28498 -59.6817 23.5367 -14.4502 -56.4925 28.982 18.2971 16.2433 -12.2269 11.1625 1.04741 
26.2463 93.8219 19.2653 84.8288 -61.9098 88.5612 -146.413 35.2851 88.8863 -137.445 12.697 6.47563 64.4926 3.59333 10.492 17.0375 -1.6878 -8.90352 -178.955 18.4344 106.233 -47.394 -19.0418 -1.81985 80.8295 -15.9571 -10.2671 15.1146 5.67736 2.4661 0.595953 8.00215 -91.9555 10.8588 0.283093 -3.91725 -0.818006 0.110548 -3.92589 -23.3108 1.44652 -3.65176 -3.29812 1.44652 -3.65175 91.0646 -28.8498 -105.052 23.5932 6.95943 -23.5164 -41.4284 -6.02257 -90.153 -42.5076 5.141 -25.1071 -83.5651 -45.2734 87.8856 -29.6668 21.5126 30.9387 38.7981 5.10913 -60.8616 20.1832 -13.268 -59.3293 31.5362 17.0955 17.0283 -13.2171 9.31026 -0.075438 
32.0173 93.6943 24.8451 83.7048 -64.2883 85.6504 -148.404 41.9081 85.7269 -137.092 13.5163 6.17101 70.0942 7.51268 10.6613 19.1322 -0.383846 -10.0697 -178.003 12.1025 102.968 -46.8745 -20.4 -4.43938 83.3122 -17.6708 -8.39555 20.1834 4.24748 -0.58186 1.35795 7.99871 -91.5383 10.8951 1.99252 -3.24765 -0.778551 1.84773 -3.3321 -23.3047 2.87615 -2.49919 -3.292 2.87615 -2.49919 90.9667 -25.3442 -106.623 30.5035 14.4714 -31.7492 -41.207 -4.70999 -92.1859 -43.4383 5.63635 -25.5961 -82.1928 -43.4283 89.9112 -36.3982 18.6613 39.7148 37.9013 2.09169 -61.1746 17.1442 -12.0451 -61.8686 33.0385 14.8236 17.6706 -13.6727 6.6106 -0.816822 
38.2277 94.1615 30.5688 84.1051 -64.7069 83.19 -150.591 46.6322 81.7747 -133.017 12.1029 5.74053 75.4655 11.2771 11.4283 21.0971 -1.55877 -5.21103 -178.824 3.11488 97.8091 -41.2403 -19.7327 -6.35824 85.0911 -18.0999 -4.02286 23.7945 2.3017 0.178702 2.07126 8.07877 -90.9641 10.7531 3.68007 -2.25655 -0.914911 3.57722 -2.41643 -23.4873 4.18786 -1.04483 -3.47469 4.18788 -1.04483 91.4064 -21.7018 -107.213 39.5492 24.1306 -38.4294 -40.3664 -3.602 -95.9207 -44.9777 5.58432 -24.2537 -81.7702 -40.6188 90.3543 -40.7302 18.825 45.2115 34.8327 -0.912637 -60.5004 17.0136 -11.9856 -62.0866 34.1393 11.6264 18.5174 -13.7707 3.07659 -2.36006 
44.6035 95.1801 36.796 84.0279 -63.4621 80.4233 -153.338 50.9671 78.0217 -125.69 9.06968 5.14745 77.3722 11.7225 11.2265 22.4779 -0.687344 -5.92756 177.065 -5.49988 92.0383 -32.4861 -21.1851 -6.65948 81.6597 -15.0646 -1.22766 29.4482 -0.600875 1.51759 2.65893 8.06807 -90.3458 10.7701 5.13529 -1.16353 -0.891445 5.07911 -1.38897 -23.5082 5.2469 0.437943 -3.49559 5.24689 0.437936 92.6441 -17.5756 -106.191 50.0088 32.2236 -44.4819 -38.7169 -3.33231 -99.8782 -45.8327 5.97707 -24.4488 -81.0483 -37.4431 91.3326 -43.8522 21.6067 50.4395 32.2472 -5.05404 -61.3805 15.8316 -11.2059 -62.2422 34.7551 7.5519 17.5947 -14.2252 -0.463092 -2.94363 
50.9806 96.5958 43.4983 84.2073 -61.1747 78.4652 -157.591 54.4021 75.8803 -116.357 4.03693 4.26402 79.7169 11.8657 9.44993 21.7916 -1.62324 -4.29095 172.111 -14.0066 86.3609 -22.9504 -26.7009 -6.23378 71.4915 -9.49422 -5.7012 32.7937 -2.34936 3.06456 3.10329 7.96662 -89.8464 10.9639 6.24941 -0.288302 -0.692079 6.23064 -0.564156 -23.3431 6.04604 1.61032 -3.33044 6.04603 1.61032 94.0225 -12.461 -105.074 57.8643 39.8231 -47.0359 -35.6841 -4.2612 -103.28 -47.9308 6.92948 -25.3658 -80.8968 -33.1635 91.2346 -48.7935 24.6025 56.2858 32.3088 -7.76251 -61.062 15.0585 -11.1327 -64.209 34.4549 3.87796 17.1333 -15.8276 -3.52359 -4.38115 
57.4266 98.1463 50.2544 84.5203 -59.0531 76.1119 -160.739 55.9054 73.2069 -105.433 0.119952 3.11613 81.9945 12.6654 8.77932 22.5925 -1.81676 -2.90001 167.793 -19.6234 81.7695 -16.8819 -26.9576 -6.34613 63.1876 -3.13642 -3.89801 26.3433 0.293619 3.79165 3.52961 7.92701 -89.3454 11.0182 7.32971 0.601245 -0.631994 7.34903 0.2763 -23.3152 6.80861 2.78638 -3.30254 6.80857 2.78637 95.2412 -6.45108 -104.802 62.6558 47.9994 -46.9243 -36.8672 -5.4466 -106.014 -51.9076 6.09558 -22.11 -81.0696 -28.9397 90.5158 -52.9506 26.2292 61.6731 33.6434 -10.7193 -60.5277 14.0894 -11.0184 -66.5162 33.5001 0.48286 18.0791 -18.1535 -6.49818 -7.58111 
63.5606 99.368 56.9031 83.2221 -57.1151 72.8734 -164.327 57.6031 71.9198 -94.0501 -1.84935 1.84306 84.4589 13.8694 7.12676 21.5987 -2.3864 -2.6162 164.884 -22.6556 78.3488 -14.8946 -25.0883 -5.85545 59.1126 -0.495575 -1.36787 16.1278 4.0059 6.08275 3.91936 7.85626 -88.9392 11.1347 8.29365 1.30487 -0.509904 8.343 0.936044 -23.2232 7.51614 3.75019 -3.21056 7.51616 3.75018 96.2166 -0.689175 -105.171 61.4161 54.5433 -42.8291 -33.425 -6.61515 -106.043 -47.3966 7.45844 -26.6195 -81.7974 -25.4962 88.6027 -56.7895 25.6428 66.7203 34.5011 -13.3296 -60.4803 13.0502 -10.7998 -68.8759 31.5925 -2.65314 19.1886 -19.1386 -9.06289 -11.2698 
